<svg width="216" height="41" viewBox="0 0 216 41" fill="none" xmlns="http://www.w3.org/2000/svg">
<g clip-path="url(#clip0_401_1050)">
<path d="M19.019 22.3378C16.6143 22.0376 12.0306 26.1509 10.2532 30.2493C9.79618 31.3037 8.94634 33.335 9.5841 35.3707C9.72748 35.8277 10.5624 38.2473 13.4973 38.676C13.5391 38.682 13.5794 38.6879 13.6212 38.6924C15.6674 38.9478 18.5425 38.2458 20.2796 36.3296C22.0001 34.4313 22.1077 31.9131 22.1137 30.9542C22.1137 30.6854 22.1107 30.4255 22.1002 30.1791C22.0091 27.6206 21.5132 24.7425 20.0466 22.8725C19.7404 22.4827 19.4491 22.4125 19.1146 22.3513C19.0832 22.3453 19.0518 22.3408 19.019 22.3363" fill="#F64E85"/>
<path d="M10.7102 12.7252C9.605 12.5878 7.70369 12.4638 5.44392 13.5646C4.89279 13.8334 1.95195 15.327 0.640593 18.2873C-0.276459 20.3574 -0.342176 23.0219 1.33809 24.1839C1.83844 24.5289 2.44483 24.7111 3.0781 24.7903C4.51342 24.9695 6.07868 24.6185 6.82099 24.4348C7.12119 24.3601 7.41095 24.281 7.69025 24.2033C10.5713 23.3893 13.9289 22.0929 16.4336 20.1438C16.9564 19.7375 17.1192 19.4358 17.2805 19.0938C18.4305 16.6742 15.1028 13.3256 10.9746 12.7626C10.8925 12.7521 10.8043 12.7402 10.7117 12.7282" fill="#F78A4C"/>
<path d="M26.935 0.0507717C24.8888 -0.204629 22.0137 0.498843 20.2767 2.41509C18.5546 4.31342 18.447 6.83158 18.4426 7.79045C18.4396 8.05929 18.447 8.31768 18.4545 8.56561C18.5471 11.1226 19.043 14.0022 20.5112 15.8722C20.8159 16.262 21.1071 16.3337 21.4432 16.3934C21.4745 16.3994 21.5074 16.4039 21.5387 16.4084C23.9434 16.7086 28.5257 12.5953 30.3015 8.4984C30.76 7.44245 31.6099 5.41119 30.9706 3.37695C30.8273 2.91992 29.9938 0.498843 27.0605 0.0701881C27.0186 0.0642138 26.9783 0.0582395 26.9365 0.0537588" fill="#A0F0FD"/>
<path d="M37.4765 13.9544C36.0427 13.7752 34.4759 14.1262 33.7351 14.3114C33.4364 14.3846 33.1437 14.4652 32.8659 14.5429C29.9818 15.3584 26.6272 16.6548 24.121 18.6039C23.5998 19.0102 23.4385 19.3104 23.2742 19.6539C22.1256 22.0735 25.4533 25.4221 29.5815 25.9836C29.6666 25.9956 29.7592 26.0075 29.8578 26.0195C30.9631 26.1569 32.8584 26.2749 35.1122 25.1771C35.6633 24.9083 38.6027 23.4162 39.914 20.4559C40.8311 18.3859 40.8983 15.7213 39.218 14.5608C38.7177 14.2158 38.1098 14.0336 37.4765 13.9544Z" fill="#8732F8"/>
<path d="M25.858 26.5153C25.6758 26.4929 25.4921 26.4795 25.3084 26.4765C25.0202 26.472 24.8603 26.5467 24.6826 26.6408C23.4265 27.3054 22.844 29.958 23.5833 31.6637C23.7715 32.0968 24.1479 32.9213 25.2098 33.2588C25.2905 33.2842 25.4891 33.3439 25.7774 33.3798C26.3449 33.45 27.256 33.4291 28.2612 32.8675C29.3201 32.276 30.4209 31.1215 30.5001 30.0163C30.5762 28.9424 29.6741 28.23 29.3142 27.9716C29.2141 27.8984 29.114 27.8312 29.0169 27.767C28.1417 27.1964 27.038 26.6617 25.858 26.5153Z" fill="#CB4A74"/>
<path d="M9.77236 25.0561C8.6716 24.9187 6.99432 25.2712 5.61128 26.0553C5.07359 26.36 4.04601 26.9589 3.36793 28.0821C3.21559 28.3345 2.42549 29.6981 2.93928 30.9229C3.22306 31.5979 3.89068 32.1999 4.75397 32.3074C4.98547 32.3358 5.23191 32.3298 5.4888 32.279C6.66723 32.049 7.7187 30.9736 8.11002 30.551C8.21905 30.433 8.3236 30.3165 8.42218 30.2044C9.44378 29.041 10.4997 27.5937 10.9164 26.251C11.0031 25.9717 10.9627 25.8372 10.909 25.6924C10.776 25.3369 10.3549 25.1278 9.77236 25.0546" fill="#D4ED77"/>
<path d="M14.7773 5.36339C14.2097 5.2932 13.2986 5.31411 12.292 5.87569C11.233 6.46714 10.1323 7.62167 10.0546 8.72691C9.97842 9.80079 10.8805 10.5132 11.2405 10.7731C11.342 10.8463 11.4421 10.9135 11.5392 10.9762C12.4144 11.5468 13.5197 12.0815 14.6996 12.2293C14.8803 12.2517 15.0625 12.2652 15.2462 12.2682C15.5345 12.2727 15.6958 12.1965 15.8735 12.1024C17.1296 11.4392 17.7106 8.78666 16.9713 7.081C16.7831 6.64786 16.4082 5.82341 15.3448 5.48587C15.2642 5.46048 15.0655 5.40073 14.7788 5.36489" fill="#FFD331"/>
<path d="M35.8009 6.4343C35.5694 6.40592 35.323 6.41189 35.0661 6.46267C33.8891 6.69418 32.8377 7.76955 32.4464 8.19073C32.3358 8.31022 32.2313 8.42522 32.1327 8.53724C31.1126 9.69924 30.0566 11.1465 29.6399 12.4907C29.5518 12.7715 29.5906 12.9059 29.6459 13.0508C29.7788 13.4063 30.2015 13.6154 30.784 13.6886C31.8863 13.826 33.5621 13.4735 34.9451 12.6879C35.4828 12.3832 36.5089 11.7858 37.1884 10.6611C37.3408 10.4087 38.1309 9.04655 37.6171 7.82033C37.3318 7.14524 36.6657 6.54333 35.8024 6.43579" fill="#66A0D1"/>
<path d="M52.1062 32.2835C49.715 32.2835 49.385 31.7324 49.385 30.5913C49.385 27.5385 49.4955 24.1182 49.4955 20.9175C49.4955 16.5771 49.3118 11.9053 49.3118 8.04437C49.3118 7.16167 49.7539 6.64639 50.9308 6.64639C51.6298 6.64639 56.1165 6.68373 60.1267 6.68373H64.5402C65.6798 6.68373 66.0114 7.05115 66.0114 9.33183C66.0114 11.7962 65.7903 12.1278 64.5029 12.1278C63.6934 12.0905 61.0453 12.1278 58.654 12.1278H55.8954V16.8729C58.654 16.8355 60.8615 16.7623 63.0317 16.7623C64.1354 16.7623 64.7598 17.0566 64.7598 19.8152C64.7598 21.5806 64.3923 22.1317 63.3991 22.1691C60.6032 22.3169 58.7646 22.3528 55.8954 22.3901V29.8565C55.8954 31.6592 55.5639 32.2835 52.1062 32.2835Z" fill="white"/>
<path d="M77.3387 13.6348C82.8559 13.6348 86.3867 17.0924 86.3867 22.8666C86.3867 28.6407 82.0837 32.7615 76.6023 32.7615C71.1209 32.7615 67.3333 29.2307 67.3333 23.5655C67.3333 17.312 71.8946 13.6348 77.3372 13.6348H77.3387ZM76.8966 26.8768C78.8457 26.8768 80.1705 25.4056 80.1705 23.0144C80.1705 20.6232 78.7725 19.5195 76.9339 19.5195C74.9848 19.5195 73.5136 20.8801 73.5136 23.4177C73.5136 25.6984 75.0953 26.8753 76.8981 26.8753L76.8966 26.8768Z" fill="white"/>
<path d="M96.3175 8.33862C97.6781 8.33862 97.9723 9.18398 97.9723 10.9494C97.9723 11.611 97.935 12.7521 97.8991 14.2233H102.423C103.637 14.2233 103.857 14.7386 103.857 16.8341C103.857 18.9295 103.636 19.409 101.908 19.409H97.7513C97.7513 20.9175 97.7139 22.4618 97.7139 24.0435C97.7139 26.3242 98.5235 26.9858 100.362 27.3533C101.134 27.5011 101.318 27.9791 101.318 28.8618C101.318 30.9946 100.619 32.7241 99.2583 32.7241C92.8957 32.7241 91.5335 28.7154 91.5335 24.4109C91.5335 22.4977 91.5335 20.8801 91.5709 19.409H89.1797C88.0027 19.409 87.7458 18.8578 87.7458 16.8341C87.7458 14.8103 87.9669 14.2233 89.1797 14.2233H91.6814C91.7188 13.1569 91.7919 12.1263 91.8293 11.1331C91.9771 9.1108 94.4774 8.33713 96.316 8.33713L96.3175 8.33862Z" fill="white"/>
<path d="M115.15 13.6348C120.667 13.6348 124.198 17.0924 124.198 22.8666C124.198 28.6407 119.895 32.7615 114.413 32.7615C108.932 32.7615 105.144 29.2307 105.144 23.5655C105.144 17.312 109.706 13.6348 115.148 13.6348H115.15ZM114.708 26.8768C116.657 26.8768 117.982 25.4056 117.982 23.0144C117.982 20.6232 116.584 19.5195 114.745 19.5195C112.796 19.5195 111.325 20.8801 111.325 23.4177C111.325 25.6984 112.906 26.8753 114.709 26.8753L114.708 26.8768Z" fill="white"/>
<path d="M128.758 38.9777C128.758 37.9845 129.346 35.1527 130.596 35.1527C131.479 35.1527 132.913 35.7038 134.68 35.7038C137.182 35.7038 138.615 34.7479 138.947 31.2171C138.984 30.8855 139.02 30.1865 139.02 29.268C137.733 31.0334 135.93 31.8429 133.76 31.8429C129.198 31.8429 126.55 28.4585 126.55 23.1623C126.55 17.4613 130.118 13.7095 134.937 13.7095C136.629 13.7095 138.027 14.2606 139.056 15.1075V14.8864C139.056 13.599 140.454 13.3047 143.139 13.3047C144.867 13.3047 145.347 13.82 145.347 15.2538C145.347 17.2029 144.796 27.3189 144.391 31.3276C143.655 38.6103 140.418 41.0015 135.122 41.0015C133.319 41.0015 131.443 40.7072 130.23 40.413C129.164 40.1188 128.759 39.8245 128.759 38.9792L128.758 38.9777ZM135.819 26.2151C137.07 26.2151 138.762 26.2525 138.945 20.3663C138.32 19.7405 137.217 19.2999 136.149 19.2999C133.758 19.2999 132.84 20.8443 132.84 22.647C132.84 24.6334 133.979 26.2151 135.819 26.2151Z" fill="white"/>
<path d="M153.879 13.929C155.534 13.929 155.755 14.2965 155.755 15.1433C155.755 16.1739 155.645 17.7182 155.499 19.3358C156.454 15.7318 158.22 13.7453 161.126 13.7453C161.825 13.7453 162.23 13.8559 162.671 14.0769C163.075 14.2606 163.332 14.5548 163.332 15.1075C163.332 16.5786 162.229 20.6979 160.868 20.6979C160.426 20.6979 159.912 20.4037 158.735 20.4037C157.558 20.4037 156.638 20.6979 156.087 22.3528C155.793 23.3087 155.682 24.6693 155.682 28.4211C155.682 31.6577 154.983 32.394 151.709 32.394C150.311 32.394 149.355 31.9893 149.355 30.4808C149.355 27.3906 149.577 18.5636 149.577 15.6944C149.577 14.2233 150.422 13.929 153.879 13.929Z" fill="white"/>
<path d="M178.559 32.6136C176.867 32.6136 176.573 31.9878 176.5 31.0692L176.389 29.7444C175.102 31.8414 173.226 32.76 170.945 32.76C166.384 32.76 163.736 29.1918 163.736 23.6014C163.736 17.642 167.304 13.6333 172.122 13.6333C173.887 13.6333 175.323 14.2591 176.389 15.215C176.794 14.0754 177.933 13.817 180.178 13.817C182.127 13.817 182.495 14.4055 182.495 15.8393C182.495 17.9363 182.457 19.9959 182.457 21.9824C182.457 28.8603 182.935 29.1186 182.935 30.7735C182.935 32.1342 181.207 32.6121 178.558 32.6121L178.559 32.6136ZM173.005 26.8753C174.255 26.8753 175.947 26.8753 176.131 20.6591C175.505 19.9974 174.403 19.5195 173.335 19.5195C170.944 19.5195 170.025 21.1743 170.025 23.0876C170.025 25.1846 171.165 26.8768 173.005 26.8768V26.8753Z" fill="white"/>
<path d="M191.285 13.929C192.94 13.929 193.382 14.407 193.382 15.2897C193.382 15.9155 193.344 16.6877 193.271 17.533C194.227 14.9223 195.992 13.6348 198.605 13.6348C201.217 13.6348 203.091 15.0686 203.901 17.9019C204.857 15.1433 206.807 13.6348 209.566 13.6348C212.913 13.6348 215.194 16.2097 215.194 21.028C215.194 23.6761 215.01 27.979 214.752 30.8855C214.641 32.0625 214.236 32.4672 212.913 32.4672C209.051 32.4672 208.61 31.8788 208.61 30.3702C208.61 27.9059 208.904 27.8685 208.904 24.4482C208.904 20.8443 208.243 19.5195 206.697 19.5195C204.416 19.5195 204.159 21.836 204.122 24.7798C204.049 27.3906 203.974 28.8632 203.974 30.1865C203.974 32.2088 202.76 32.3567 200.406 32.3567C198.419 32.3567 197.72 31.474 197.72 29.6713C197.72 27.2442 197.942 24.853 197.942 23.455C197.942 20.5859 197.132 19.5195 195.955 19.5195C194.63 19.5195 193.712 19.8869 193.417 23.8971C193.27 25.1846 193.307 25.9941 193.307 28.3106C193.307 31.7682 192.865 32.394 189.997 32.394C187.495 32.394 186.982 31.8429 186.982 30.2239C186.982 26.6199 187.203 19.8884 187.203 15.9528C187.203 14.2248 188.012 13.9305 191.286 13.9305L191.285 13.929Z" fill="white"/>
</g>
<defs>
<clipPath id="clip0_401_1050">
<rect width="215.194" height="41" fill="white"/>
</clipPath>
</defs>
</svg>
